<svg xmlns="http://www.w3.org/2000/svg" data-name="S_Brush_18_N@2x" height="36" id="S_Brush_18_N_2x" viewBox="0 0 36 36" width="36">
  <defs>
    <style>
      .fill {
        fill: #707070;
      }

      
    </style>
  </defs>
  <path class="fill" d="M12.509,21.03a4.921,4.921,0,0,0-4.195,1.2,12.935,12.935,0,0,0-2.679,4.782c-.463,1.94-.9,3.772-3.36,4.772a.6.6,0,0,0-.341.712.9.9,0,0,0,.645.658c.585.146,1.253.284,1.977.4,2.607.409,7.48.738,10.806-1.652,1.238-.848,2.837-2.982,2.822-4.546A6.813,6.813,0,0,0,12.509,21.03Z" />
  <path class="fill" d="M19.9,24.1C27.135,15.873,36.322,4.565,33.916,2.159S21.546,10.976,14.38,18.83A10.051,10.051,0,0,1,19.9,24.1Z" />
  </svg>